<?xml version="1.0" encoding="UTF-8" standalone="no"?>
<svg
   width="494.06534"
   zoomAndPan="magnify"
   viewBox="0 0 370.549 48.328124"
   height="64.4375"
   preserveAspectRatio="xMidYMid"
   version="1.0"
   id="svg34"
   sodipodi:docname="logo-dark.svg"
   inkscape:version="1.4 (e7c3feb100, 2024-10-09)"
   xmlns:inkscape="http://www.inkscape.org/namespaces/inkscape"
   xmlns:sodipodi="http://sodipodi.sourceforge.net/DTD/sodipodi-0.dtd"
   xmlns="http://www.w3.org/2000/svg"
   xmlns:svg="http://www.w3.org/2000/svg">
  <sodipodi:namedview
     id="namedview34"
     pagecolor="#505050"
     bordercolor="#eeeeee"
     borderopacity="1"
     inkscape:showpageshadow="0"
     inkscape:pageopacity="0"
     inkscape:pagecheckerboard="0"
     inkscape:deskcolor="#d1d1d1"
     inkscape:zoom="0.69"
     inkscape:cx="247.10145"
     inkscape:cy="45.652174"
     inkscape:window-width="946"
     inkscape:window-height="1042"
     inkscape:window-x="965"
     inkscape:window-y="29"
     inkscape:window-maximized="1"
     inkscape:current-layer="svg34" />
  <defs
     id="defs1">
    <g
       id="g1" />
  </defs>
  <g
     fill="#ffffff"
     fill-opacity="1"
     id="g4"
     transform="translate(-1.7656295,-153.5775)">
    <g
       transform="translate(4.5e-6,201.21813)"
       id="g3">
      <g
         id="g2">
        <path
           d="M 37.171875,-47.640625 V -42.875 H 22.25 V 0 H 16.6875 V -42.875 H 1.765625 v -4.765625 z m 0,0"
           id="path1" />
      </g>
    </g>
  </g>
  <g
     fill="#ffffff"
     fill-opacity="1"
     id="g7"
     transform="translate(-1.7656295,-153.5775)">
    <g
       transform="translate(38.90329,201.21813)"
       id="g6">
      <g
         id="g5">
        <path
           d="m 6.25,0 v -35.9375 h 5.0625 v 5.640625 l 0.671875,0.15625 c 1.675781,-4.082031 4.828125,-6.125 9.453125,-6.125 2.457031,0 4.296875,0.445313 5.515625,1.328125 l -1.375,4.5 -0.65625,0.140625 C 23.578125,-30.972656 22.101562,-31.3125 20.5,-31.3125 c -2.875,0 -5.085938,1.078125 -6.625,3.234375 -1.542969,2.148437 -2.3125,5.632813 -2.3125,10.453125 V 0 Z m 0,0"
           id="path4" />
      </g>
    </g>
  </g>
  <g
     fill="#ffffff"
     fill-opacity="1"
     id="g10"
     transform="translate(-1.7656295,-153.5775)">
    <g
       transform="translate(66.663424,201.21813)"
       id="g9">
      <g
         id="g8">
        <path
           d="m 17.765625,0.6875 c -4.0625,0 -7.089844,-1.070312 -9.078125,-3.21875 C 6.695312,-4.6875 5.703125,-7.835938 5.703125,-11.984375 V -35.9375 h 5.3125 v 23.8125 c 0,5.460938 2.5625,8.1875 7.6875,8.1875 3.257813,0 5.832031,-1.0625 7.71875,-3.1875 1.894531,-2.132812 2.84375,-5.59375 2.84375,-10.375 v -18.4375 h 5.3125 V 0 H 29.5625 v -5.640625 l -0.6875,-0.15625 c -1.242188,2.1875 -2.726562,3.820313 -4.453125,4.890625 -1.730469,1.0625 -3.949219,1.59375 -6.65625,1.59375 z m 0,0"
           id="path7" />
      </g>
    </g>
  </g>
  <g
     fill="#ffffff"
     fill-opacity="1"
     id="g13"
     transform="translate(-1.7656295,-153.5775)">
    <g
       transform="translate(107.48907,201.21813)"
       id="g12">
      <g
         id="g11">
        <path
           d="m 16.390625,0.6875 c -2.261719,0 -4.355469,-0.296875 -6.28125,-0.890625 C 8.191406,-0.804688 6.570312,-1.628906 5.25,-2.671875 3.925781,-3.710938 2.988281,-4.882812 2.4375,-6.1875 L 5.578125,-9.453125 H 6.25 c 1.175781,1.78125 2.585938,3.125 4.234375,4.03125 1.65625,0.898437 3.625,1.34375 5.90625,1.34375 2.644531,0 4.65625,-0.515625 6.03125,-1.546875 C 23.804688,-6.65625 24.5,-8.09375 24.5,-9.9375 c 0,-1.414062 -0.417969,-2.582031 -1.25,-3.5 -0.835938,-0.925781 -2.1875,-1.617188 -4.0625,-2.078125 l -6.0625,-1.5 C 9.894531,-17.796875 7.535156,-19.03125 6.046875,-20.71875 4.554688,-22.414062 3.8125,-24.515625 3.8125,-27.015625 c 0,-1.957031 0.5,-3.65625 1.5,-5.09375 1,-1.445313 2.4375,-2.5625 4.3125,-3.34375 1.882812,-0.78125 4.117188,-1.171875 6.703125,-1.171875 3.300781,0 5.898437,0.464844 7.796875,1.390625 1.90625,0.917969 3.390625,2.203125 4.453125,3.859375 l -3,2.921875 h -0.65625 c -1.148437,-1.320313 -2.402344,-2.273437 -3.765625,-2.859375 -1.355469,-0.582031 -2.964844,-0.875 -4.828125,-0.875 -2.375,0 -4.195313,0.421875 -5.453125,1.265625 -1.25,0.84375 -1.875,2.074219 -1.875,3.6875 0,1.449219 0.441406,2.621094 1.328125,3.515625 0.894531,0.886719 2.445313,1.601562 4.65625,2.140625 l 5.96875,1.4375 c 3.125,0.742187 5.378906,1.96875 6.765625,3.6875 1.394531,1.71875 2.09375,3.871094 2.09375,6.453125 0,2.105469 -0.5,3.964844 -1.5,5.578125 -1,1.605469 -2.511719,2.859375 -4.53125,3.765625 -2.023438,0.894531 -4.484375,1.34375 -7.390625,1.34375 z m 0,0"
           id="path10" />
      </g>
    </g>
  </g>
  <g
     fill="#ffffff"
     fill-opacity="1"
     id="g16"
     transform="translate(-1.7656295,-153.5775)">
    <g
       transform="translate(140.72303,201.21813)"
       id="g15">
      <g
         id="g14">
        <path
           d="M 24.3125,-5.703125 26,-1.890625 C 25.15625,-1.046875 24.039062,-0.40625 22.65625,0.03125 21.28125,0.46875 19.789062,0.6875 18.1875,0.6875 11.320312,0.6875 7.890625,-2.789062 7.890625,-9.75 V -31.609375 H 1.625 v -4.359375 h 6.265625 v -7.59375 l 5.3125,-0.890625 v 8.484375 h 11.5625 v 4.359375 h -11.5625 v 21.34375 c 0,4.125 1.789063,6.1875 5.375,6.1875 1.945313,0 3.628906,-0.539063 5.046875,-1.625 z m 0,0"
           id="path13" />
      </g>
    </g>
  </g>
  <g
     fill="#5271ff"
     fill-opacity="1"
     id="g19"
     transform="translate(-1.7656295,-153.5775)">
    <g
       transform="translate(168.09248,201.21813)"
       id="g18">
      <g
         id="g17">
        <path
           d="m 15.609375,-20.921875 v 13.03125 h 22.75 V 0 H 6.1875 V -47.640625 H 37.828125 V -39.75 h -22.21875 v 11.140625 H 35.03125 v 7.6875 z m 0,0"
           id="path16" />
      </g>
    </g>
  </g>
  <g
     fill="#5271ff"
     fill-opacity="1"
     id="g22"
     transform="translate(-1.7656295,-153.5775)">
    <g
       transform="translate(209.04846,201.21813)"
       id="g21">
      <g
         id="g20">
        <path
           d="m 16.8125,0.6875 c -2.460938,0 -4.710938,-0.289062 -6.75,-0.859375 C 8.019531,-0.753906 6.273438,-1.550781 4.828125,-2.5625 3.390625,-3.570312 2.320312,-4.726562 1.625,-6.03125 l 5.015625,-5.40625 h 0.6875 c 1.195313,1.605469 2.609375,2.8125 4.234375,3.625 1.632812,0.804688 3.40625,1.203125 5.3125,1.203125 1.757812,0 3.082031,-0.3125 3.96875,-0.9375 0.894531,-0.632813 1.34375,-1.539063 1.34375,-2.71875 0,-0.914063 -0.324219,-1.679687 -0.96875,-2.296875 -0.636719,-0.613281 -1.667969,-1.097656 -3.09375,-1.453125 l -4.765625,-1.140625 c -3.5625,-0.84375 -6.167969,-2.140625 -7.8125,-3.890625 -1.636719,-1.75 -2.453125,-3.96875 -2.453125,-6.65625 0,-2.238281 0.566406,-4.179687 1.703125,-5.828125 1.144531,-1.65625 2.753906,-2.914062 4.828125,-3.78125 2.070312,-0.875 4.488281,-1.3125 7.25,-1.3125 3.238281,0 5.921875,0.46875 8.046875,1.40625 2.132813,0.929688 3.796875,2.171875 4.984375,3.734375 l -4.8125,5.21875 H 24.4375 c -1,-1.125 -2.125,-1.945313 -3.375,-2.46875 -1.25,-0.519531 -2.648438,-0.78125 -4.1875,-0.78125 -3.5625,0 -5.34375,1.105469 -5.34375,3.3125 0,0.9375 0.328125,1.703125 0.984375,2.296875 0.664063,0.585938 1.835937,1.058594 3.515625,1.421875 L 20.46875,-21.5 c 3.644531,0.78125 6.304688,2.039062 7.984375,3.765625 1.6875,1.71875 2.53125,4.039063 2.53125,6.953125 0,2.28125 -0.570313,4.292969 -1.703125,6.03125 -1.125,1.730469 -2.75,3.070312 -4.875,4.015625 C 22.28125,0.210938 19.75,0.6875 16.8125,0.6875 Z m 0,0"
           id="path19" />
      </g>
    </g>
  </g>
  <g
     fill="#5271ff"
     fill-opacity="1"
     id="g25"
     transform="translate(-1.7656295,-153.5775)">
    <g
       transform="translate(242.18467,201.21813)"
       id="g24">
      <g
         id="g23">
        <path
           d="m 24.796875,-8.5625 2.34375,6.671875 C 26.160156,-1.085938 24.929688,-0.457031 23.453125,0 21.984375,0.457031 20.3125,0.6875 18.4375,0.6875 c -3.886719,0 -6.839844,-1.054688 -8.859375,-3.171875 -2.023437,-2.125 -3.03125,-5.207031 -3.03125,-9.25 V -28.8125 h -5.46875 v -7.15625 h 5.46875 v -7.015625 l 9.03125,-1.46875 v 8.484375 H 25.78125 v 7.15625 H 15.578125 v 16.4375 c 0,1.78125 0.367187,3.078125 1.109375,3.890625 0.738281,0.8125 1.8125,1.21875 3.21875,1.21875 1.613281,0 3.015625,-0.429687 4.203125,-1.296875 z m 0,0"
           id="path22" />
      </g>
    </g>
  </g>
  <g
     fill="#5271ff"
     fill-opacity="1"
     id="g28"
     transform="translate(-1.7656295,-153.5775)">
    <g
       transform="translate(270.10772,201.21813)"
       id="g27">
      <g
         id="g26">
        <path
           d="m 14.015625,0.6875 c -2.304687,0 -4.304687,-0.421875 -6,-1.265625 C 6.316406,-1.429688 5.007812,-2.675781 4.09375,-4.3125 3.1875,-5.957031 2.734375,-7.929688 2.734375,-10.234375 c 0,-2.125 0.453125,-3.910156 1.359375,-5.359375 0.914062,-1.445312 2.328125,-2.628906 4.234375,-3.546875 1.914063,-0.925781 4.421875,-1.640625 7.515625,-2.140625 2.144531,-0.34375 3.773438,-0.71875 4.890625,-1.125 1.125,-0.414062 1.878906,-0.882812 2.265625,-1.40625 0.394531,-0.53125 0.59375,-1.195312 0.59375,-2 0,-1.144531 -0.402344,-2.019531 -1.203125,-2.625 -0.804687,-0.613281 -2.140625,-0.921875 -4.015625,-0.921875 -2,0 -3.902344,0.449219 -5.703125,1.34375 -1.804687,0.886719 -3.367187,2.058594 -4.6875,3.515625 h -0.65625 l -3.78125,-5.703125 c 1.820313,-2.019531 4.046875,-3.59375 6.671875,-4.71875 2.632812,-1.132813 5.503906,-1.703125 8.609375,-1.703125 4.757813,0 8.203125,1.011719 10.328125,3.03125 2.132812,2.023438 3.203125,4.886719 3.203125,8.59375 v 15.609375 c 0,1.617187 0.703125,2.421875 2.109375,2.421875 0.550781,0 1.085938,-0.097656 1.609375,-0.296875 l 0.453125,0.125 0.640625,6.296875 c -0.492187,0.324219 -1.183594,0.589844 -2.078125,0.796875 -0.886719,0.207031 -1.867188,0.3125 -2.9375,0.3125 -2.148438,0 -3.824219,-0.410156 -5.03125,-1.234375 -1.210938,-0.832031 -2.074219,-2.128906 -2.59375,-3.890625 l -0.671875,-0.0625 C 22.097656,-1.179688 18.816406,0.6875 14.015625,0.6875 Z m 2.859375,-6.75 c 2.082031,0 3.75,-0.695312 5,-2.09375 1.25,-1.40625 1.875,-3.359375 1.875,-5.859375 v -3.640625 l -0.609375,-0.140625 c -0.542969,0.4375 -1.257813,0.804687 -2.140625,1.09375 -0.875,0.292969 -2.140625,0.578125 -3.796875,0.859375 -1.960937,0.335938 -3.367187,0.898438 -4.21875,1.6875 -0.855469,0.792969 -1.28125,1.917969 -1.28125,3.375 0,1.542969 0.453125,2.714844 1.359375,3.515625 0.914062,0.804687 2.1875,1.203125 3.8125,1.203125 z m 0,0"
           id="path25" />
      </g>
    </g>
  </g>
  <g
     fill="#5271ff"
     fill-opacity="1"
     id="g31"
     transform="translate(-1.7656295,-153.5775)">
    <g
       transform="translate(308.00095,201.21813)"
       id="g30">
      <g
         id="g29">
        <path
           d="m 24.796875,-8.5625 2.34375,6.671875 C 26.160156,-1.085938 24.929688,-0.457031 23.453125,0 21.984375,0.457031 20.3125,0.6875 18.4375,0.6875 c -3.886719,0 -6.839844,-1.054688 -8.859375,-3.171875 -2.023437,-2.125 -3.03125,-5.207031 -3.03125,-9.25 V -28.8125 h -5.46875 v -7.15625 h 5.46875 v -7.015625 l 9.03125,-1.46875 v 8.484375 H 25.78125 v 7.15625 H 15.578125 v 16.4375 c 0,1.78125 0.367187,3.078125 1.109375,3.890625 0.738281,0.8125 1.8125,1.21875 3.21875,1.21875 1.613281,0 3.015625,-0.429687 4.203125,-1.296875 z m 0,0"
           id="path28" />
      </g>
    </g>
  </g>
  <g
     fill="#5271ff"
     fill-opacity="1"
     id="g34"
     transform="translate(-1.7656295,-153.5775)">
    <g
       transform="translate(335.924,201.21813)"
       id="g33">
      <g
         id="g32">
        <path
           d="m 35.515625,-15.9375 h -23.09375 c 0.257813,3.136719 1.148437,5.417969 2.671875,6.84375 1.519531,1.417969 3.59375,2.125 6.21875,2.125 2.0625,0 3.734375,-0.382812 5.015625,-1.15625 1.28125,-0.769531 2.3125,-1.941406 3.09375,-3.515625 h 0.6875 l 6,3.859375 c -1.179687,2.511719 -2.953125,4.554688 -5.328125,6.125 -2.367188,1.5625 -5.523438,2.34375 -9.46875,2.34375 -3.71875,0 -6.933594,-0.703125 -9.640625,-2.109375 -2.699219,-1.414063 -4.78125,-3.519531 -6.25,-6.3125 -1.46875,-2.789063 -2.203125,-6.195313 -2.203125,-10.21875 0,-4.082031 0.769531,-7.523437 2.3125,-10.328125 1.550781,-2.800781 3.640625,-4.890625 6.265625,-6.265625 2.625,-1.382813 5.578125,-2.078125 8.859375,-2.078125 5.082031,0 8.972656,1.351562 11.671875,4.046875 2.707031,2.6875 4.0625,6.640625 4.0625,11.859375 0,1.886719 -0.0625,3.351562 -0.1875,4.390625 z m -7.75,-5.828125 C 27.671875,-24.503906 27.03125,-26.5 25.84375,-27.75 c -1.179688,-1.25 -2.90625,-1.875 -5.1875,-1.875 -4.5625,0 -7.246094,2.621094 -8.046875,7.859375 z m 0,0"
           id="path31" />
      </g>
    </g>
  </g>
</svg>
