<svg xmlns="http://www.w3.org/2000/svg" xmlns:xlink="http://www.w3.org/1999/xlink" width="500" zoomAndPan="magnify" viewBox="0 0 375 374.999991" height="500" preserveAspectRatio="xMidYMid meet" version="1.0"><defs><g/></defs><g fill="#ffffff" fill-opacity="1"><g transform="translate(0.0000045, 201.218126)"><g><path d="M 37.171875 -47.640625 L 37.171875 -42.875 L 22.25 -42.875 L 22.25 0 L 16.6875 0 L 16.6875 -42.875 L 1.765625 -42.875 L 1.765625 -47.640625 Z M 37.171875 -47.640625 "/></g></g></g><g fill="#ffffff" fill-opacity="1"><g transform="translate(38.90329, 201.218126)"><g><path d="M 6.25 0 L 6.25 -35.9375 L 11.3125 -35.9375 L 11.3125 -30.296875 L 11.984375 -30.140625 C 13.660156 -34.222656 16.8125 -36.265625 21.4375 -36.265625 C 23.894531 -36.265625 25.734375 -35.820312 26.953125 -34.9375 L 25.578125 -30.4375 L 24.921875 -30.296875 C 23.578125 -30.972656 22.101562 -31.3125 20.5 -31.3125 C 17.625 -31.3125 15.414062 -30.234375 13.875 -28.078125 C 12.332031 -25.929688 11.5625 -22.445312 11.5625 -17.625 L 11.5625 0 Z M 6.25 0 "/></g></g></g><g fill="#ffffff" fill-opacity="1"><g transform="translate(66.663424, 201.218126)"><g><path d="M 17.765625 0.6875 C 13.703125 0.6875 10.675781 -0.382812 8.6875 -2.53125 C 6.695312 -4.6875 5.703125 -7.835938 5.703125 -11.984375 L 5.703125 -35.9375 L 11.015625 -35.9375 L 11.015625 -12.125 C 11.015625 -6.664062 13.578125 -3.9375 18.703125 -3.9375 C 21.960938 -3.9375 24.535156 -5 26.421875 -7.125 C 28.316406 -9.257812 29.265625 -12.71875 29.265625 -17.5 L 29.265625 -35.9375 L 34.578125 -35.9375 L 34.578125 0 L 29.5625 0 L 29.5625 -5.640625 L 28.875 -5.796875 C 27.632812 -3.609375 26.148438 -1.976562 24.421875 -0.90625 C 22.691406 0.15625 20.472656 0.6875 17.765625 0.6875 Z M 17.765625 0.6875 "/></g></g></g><g fill="#ffffff" fill-opacity="1"><g transform="translate(107.489067, 201.218126)"><g><path d="M 16.390625 0.6875 C 14.128906 0.6875 12.035156 0.390625 10.109375 -0.203125 C 8.191406 -0.804688 6.570312 -1.628906 5.25 -2.671875 C 3.925781 -3.710938 2.988281 -4.882812 2.4375 -6.1875 L 5.578125 -9.453125 L 6.25 -9.453125 C 7.425781 -7.671875 8.835938 -6.328125 10.484375 -5.421875 C 12.140625 -4.523438 14.109375 -4.078125 16.390625 -4.078125 C 19.035156 -4.078125 21.046875 -4.59375 22.421875 -5.625 C 23.804688 -6.65625 24.5 -8.09375 24.5 -9.9375 C 24.5 -11.351562 24.082031 -12.519531 23.25 -13.4375 C 22.414062 -14.363281 21.0625 -15.054688 19.1875 -15.515625 L 13.125 -17.015625 C 9.894531 -17.796875 7.535156 -19.03125 6.046875 -20.71875 C 4.554688 -22.414062 3.8125 -24.515625 3.8125 -27.015625 C 3.8125 -28.972656 4.3125 -30.671875 5.3125 -32.109375 C 6.3125 -33.554688 7.75 -34.671875 9.625 -35.453125 C 11.507812 -36.234375 13.742188 -36.625 16.328125 -36.625 C 19.628906 -36.625 22.226562 -36.160156 24.125 -35.234375 C 26.03125 -34.316406 27.515625 -33.03125 28.578125 -31.375 L 25.578125 -28.453125 L 24.921875 -28.453125 C 23.773438 -29.773438 22.519531 -30.726562 21.15625 -31.3125 C 19.800781 -31.894531 18.191406 -32.1875 16.328125 -32.1875 C 13.953125 -32.1875 12.132812 -31.765625 10.875 -30.921875 C 9.625 -30.078125 9 -28.847656 9 -27.234375 C 9 -25.785156 9.441406 -24.613281 10.328125 -23.71875 C 11.222656 -22.832031 12.773438 -22.117188 14.984375 -21.578125 L 20.953125 -20.140625 C 24.078125 -19.398438 26.332031 -18.171875 27.71875 -16.453125 C 29.113281 -14.734375 29.8125 -12.582031 29.8125 -10 C 29.8125 -7.894531 29.3125 -6.035156 28.3125 -4.421875 C 27.3125 -2.816406 25.800781 -1.5625 23.78125 -0.65625 C 21.757812 0.238281 19.296875 0.6875 16.390625 0.6875 Z M 16.390625 0.6875 "/></g></g></g><g fill="#ffffff" fill-opacity="1"><g transform="translate(140.72303, 201.218126)"><g><path d="M 24.3125 -5.703125 L 26 -1.890625 C 25.15625 -1.046875 24.039062 -0.40625 22.65625 0.03125 C 21.28125 0.46875 19.789062 0.6875 18.1875 0.6875 C 11.320312 0.6875 7.890625 -2.789062 7.890625 -9.75 L 7.890625 -31.609375 L 1.625 -31.609375 L 1.625 -35.96875 L 7.890625 -35.96875 L 7.890625 -43.5625 L 13.203125 -44.453125 L 13.203125 -35.96875 L 24.765625 -35.96875 L 24.765625 -31.609375 L 13.203125 -31.609375 L 13.203125 -10.265625 C 13.203125 -6.140625 14.992188 -4.078125 18.578125 -4.078125 C 20.523438 -4.078125 22.207031 -4.617188 23.625 -5.703125 Z M 24.3125 -5.703125 "/></g></g></g><g fill="#5271ff" fill-opacity="1"><g transform="translate(168.092485, 201.218126)"><g><path d="M 15.609375 -20.921875 L 15.609375 -7.890625 L 38.359375 -7.890625 L 38.359375 0 L 6.1875 0 L 6.1875 -47.640625 L 37.828125 -47.640625 L 37.828125 -39.75 L 15.609375 -39.75 L 15.609375 -28.609375 L 35.03125 -28.609375 L 35.03125 -20.921875 Z M 15.609375 -20.921875 "/></g></g></g><g fill="#5271ff" fill-opacity="1"><g transform="translate(209.048457, 201.218126)"><g><path d="M 16.8125 0.6875 C 14.351562 0.6875 12.101562 0.398438 10.0625 -0.171875 C 8.019531 -0.753906 6.273438 -1.550781 4.828125 -2.5625 C 3.390625 -3.570312 2.320312 -4.726562 1.625 -6.03125 L 6.640625 -11.4375 L 7.328125 -11.4375 C 8.523438 -9.832031 9.9375 -8.625 11.5625 -7.8125 C 13.195312 -7.007812 14.96875 -6.609375 16.875 -6.609375 C 18.632812 -6.609375 19.957031 -6.921875 20.84375 -7.546875 C 21.738281 -8.179688 22.1875 -9.085938 22.1875 -10.265625 C 22.1875 -11.179688 21.863281 -11.945312 21.21875 -12.5625 C 20.582031 -13.175781 19.550781 -13.660156 18.125 -14.015625 L 13.359375 -15.15625 C 9.796875 -16 7.191406 -17.296875 5.546875 -19.046875 C 3.910156 -20.796875 3.09375 -23.015625 3.09375 -25.703125 C 3.09375 -27.941406 3.660156 -29.882812 4.796875 -31.53125 C 5.941406 -33.1875 7.550781 -34.445312 9.625 -35.3125 C 11.695312 -36.1875 14.113281 -36.625 16.875 -36.625 C 20.113281 -36.625 22.796875 -36.15625 24.921875 -35.21875 C 27.054688 -34.289062 28.71875 -33.046875 29.90625 -31.484375 L 25.09375 -26.265625 L 24.4375 -26.265625 C 23.4375 -27.390625 22.3125 -28.210938 21.0625 -28.734375 C 19.8125 -29.253906 18.414062 -29.515625 16.875 -29.515625 C 13.3125 -29.515625 11.53125 -28.410156 11.53125 -26.203125 C 11.53125 -25.265625 11.859375 -24.5 12.515625 -23.90625 C 13.179688 -23.320312 14.351562 -22.847656 16.03125 -22.484375 L 20.46875 -21.5 C 24.113281 -20.71875 26.773438 -19.460938 28.453125 -17.734375 C 30.140625 -16.015625 30.984375 -13.695312 30.984375 -10.78125 C 30.984375 -8.5 30.414062 -6.488281 29.28125 -4.75 C 28.15625 -3.019531 26.53125 -1.679688 24.40625 -0.734375 C 22.28125 0.210938 19.75 0.6875 16.8125 0.6875 Z M 16.8125 0.6875 "/></g></g></g><g fill="#5271ff" fill-opacity="1"><g transform="translate(242.184672, 201.218126)"><g><path d="M 24.796875 -8.5625 L 27.140625 -1.890625 C 26.160156 -1.085938 24.929688 -0.457031 23.453125 0 C 21.984375 0.457031 20.3125 0.6875 18.4375 0.6875 C 14.550781 0.6875 11.597656 -0.367188 9.578125 -2.484375 C 7.554688 -4.609375 6.546875 -7.691406 6.546875 -11.734375 L 6.546875 -28.8125 L 1.078125 -28.8125 L 1.078125 -35.96875 L 6.546875 -35.96875 L 6.546875 -42.984375 L 15.578125 -44.453125 L 15.578125 -35.96875 L 25.78125 -35.96875 L 25.78125 -28.8125 L 15.578125 -28.8125 L 15.578125 -12.375 C 15.578125 -10.59375 15.945312 -9.296875 16.6875 -8.484375 C 17.425781 -7.671875 18.5 -7.265625 19.90625 -7.265625 C 21.519531 -7.265625 22.921875 -7.695312 24.109375 -8.5625 Z M 24.796875 -8.5625 "/></g></g></g><g fill="#5271ff" fill-opacity="1"><g transform="translate(270.107718, 201.218126)"><g><path d="M 14.015625 0.6875 C 11.710938 0.6875 9.710938 0.265625 8.015625 -0.578125 C 6.316406 -1.429688 5.007812 -2.675781 4.09375 -4.3125 C 3.1875 -5.957031 2.734375 -7.929688 2.734375 -10.234375 C 2.734375 -12.359375 3.1875 -14.144531 4.09375 -15.59375 C 5.007812 -17.039062 6.421875 -18.222656 8.328125 -19.140625 C 10.242188 -20.066406 12.75 -20.78125 15.84375 -21.28125 C 17.988281 -21.625 19.617188 -22 20.734375 -22.40625 C 21.859375 -22.820312 22.613281 -23.289062 23 -23.8125 C 23.394531 -24.34375 23.59375 -25.007812 23.59375 -25.8125 C 23.59375 -26.957031 23.191406 -27.832031 22.390625 -28.4375 C 21.585938 -29.050781 20.25 -29.359375 18.375 -29.359375 C 16.375 -29.359375 14.472656 -28.910156 12.671875 -28.015625 C 10.867188 -27.128906 9.304688 -25.957031 7.984375 -24.5 L 7.328125 -24.5 L 3.546875 -30.203125 C 5.367188 -32.222656 7.59375 -33.796875 10.21875 -34.921875 C 12.851562 -36.054688 15.722656 -36.625 18.828125 -36.625 C 23.585938 -36.625 27.03125 -35.613281 29.15625 -33.59375 C 31.289062 -31.570312 32.359375 -28.707031 32.359375 -25 L 32.359375 -9.390625 C 32.359375 -7.773438 33.0625 -6.96875 34.46875 -6.96875 C 35.019531 -6.96875 35.554688 -7.066406 36.078125 -7.265625 L 36.53125 -7.140625 L 37.171875 -0.84375 C 36.679688 -0.519531 35.988281 -0.253906 35.09375 -0.046875 C 34.207031 0.160156 33.226562 0.265625 32.15625 0.265625 C 30.007812 0.265625 28.332031 -0.144531 27.125 -0.96875 C 25.914062 -1.800781 25.050781 -3.097656 24.53125 -4.859375 L 23.859375 -4.921875 C 22.097656 -1.179688 18.816406 0.6875 14.015625 0.6875 Z M 16.875 -6.0625 C 18.957031 -6.0625 20.625 -6.757812 21.875 -8.15625 C 23.125 -9.5625 23.75 -11.515625 23.75 -14.015625 L 23.75 -17.65625 L 23.140625 -17.796875 C 22.597656 -17.359375 21.882812 -16.992188 21 -16.703125 C 20.125 -16.410156 18.859375 -16.125 17.203125 -15.84375 C 15.242188 -15.507812 13.835938 -14.945312 12.984375 -14.15625 C 12.128906 -13.363281 11.703125 -12.238281 11.703125 -10.78125 C 11.703125 -9.238281 12.15625 -8.066406 13.0625 -7.265625 C 13.976562 -6.460938 15.25 -6.0625 16.875 -6.0625 Z M 16.875 -6.0625 "/></g></g></g><g fill="#5271ff" fill-opacity="1"><g transform="translate(308.000951, 201.218126)"><g><path d="M 24.796875 -8.5625 L 27.140625 -1.890625 C 26.160156 -1.085938 24.929688 -0.457031 23.453125 0 C 21.984375 0.457031 20.3125 0.6875 18.4375 0.6875 C 14.550781 0.6875 11.597656 -0.367188 9.578125 -2.484375 C 7.554688 -4.609375 6.546875 -7.691406 6.546875 -11.734375 L 6.546875 -28.8125 L 1.078125 -28.8125 L 1.078125 -35.96875 L 6.546875 -35.96875 L 6.546875 -42.984375 L 15.578125 -44.453125 L 15.578125 -35.96875 L 25.78125 -35.96875 L 25.78125 -28.8125 L 15.578125 -28.8125 L 15.578125 -12.375 C 15.578125 -10.59375 15.945312 -9.296875 16.6875 -8.484375 C 17.425781 -7.671875 18.5 -7.265625 19.90625 -7.265625 C 21.519531 -7.265625 22.921875 -7.695312 24.109375 -8.5625 Z M 24.796875 -8.5625 "/></g></g></g><g fill="#5271ff" fill-opacity="1"><g transform="translate(335.923996, 201.218126)"><g><path d="M 35.515625 -15.9375 L 12.421875 -15.9375 C 12.679688 -12.800781 13.570312 -10.519531 15.09375 -9.09375 C 16.613281 -7.675781 18.6875 -6.96875 21.3125 -6.96875 C 23.375 -6.96875 25.046875 -7.351562 26.328125 -8.125 C 27.609375 -8.894531 28.640625 -10.066406 29.421875 -11.640625 L 30.109375 -11.640625 L 36.109375 -7.78125 C 34.929688 -5.269531 33.15625 -3.226562 30.78125 -1.65625 C 28.414062 -0.09375 25.257812 0.6875 21.3125 0.6875 C 17.59375 0.6875 14.378906 -0.015625 11.671875 -1.421875 C 8.972656 -2.835938 6.890625 -4.941406 5.421875 -7.734375 C 3.953125 -10.523438 3.21875 -13.929688 3.21875 -17.953125 C 3.21875 -22.035156 3.988281 -25.476562 5.53125 -28.28125 C 7.082031 -31.082031 9.171875 -33.171875 11.796875 -34.546875 C 14.421875 -35.929688 17.375 -36.625 20.65625 -36.625 C 25.738281 -36.625 29.628906 -35.273438 32.328125 -32.578125 C 35.035156 -29.890625 36.390625 -25.9375 36.390625 -20.71875 C 36.390625 -18.832031 36.328125 -17.367188 36.203125 -16.328125 Z M 27.765625 -21.765625 C 27.671875 -24.503906 27.03125 -26.5 25.84375 -27.75 C 24.664062 -29 22.9375 -29.625 20.65625 -29.625 C 16.09375 -29.625 13.410156 -27.003906 12.609375 -21.765625 Z M 27.765625 -21.765625 "/></g></g></g><g fill="#000000" fill-opacity="1"><g transform="translate(0.0000045, 280.164996)"><g><path d="M 37.171875 -47.640625 L 37.171875 -42.875 L 22.25 -42.875 L 22.25 0 L 16.6875 0 L 16.6875 -42.875 L 1.765625 -42.875 L 1.765625 -47.640625 Z M 37.171875 -47.640625 "/></g></g></g><g fill="#000000" fill-opacity="1"><g transform="translate(38.90329, 280.164996)"><g><path d="M 6.25 0 L 6.25 -35.9375 L 11.3125 -35.9375 L 11.3125 -30.296875 L 11.984375 -30.140625 C 13.660156 -34.222656 16.8125 -36.265625 21.4375 -36.265625 C 23.894531 -36.265625 25.734375 -35.820312 26.953125 -34.9375 L 25.578125 -30.4375 L 24.921875 -30.296875 C 23.578125 -30.972656 22.101562 -31.3125 20.5 -31.3125 C 17.625 -31.3125 15.414062 -30.234375 13.875 -28.078125 C 12.332031 -25.929688 11.5625 -22.445312 11.5625 -17.625 L 11.5625 0 Z M 6.25 0 "/></g></g></g><g fill="#000000" fill-opacity="1"><g transform="translate(66.663424, 280.164996)"><g><path d="M 17.765625 0.6875 C 13.703125 0.6875 10.675781 -0.382812 8.6875 -2.53125 C 6.695312 -4.6875 5.703125 -7.835938 5.703125 -11.984375 L 5.703125 -35.9375 L 11.015625 -35.9375 L 11.015625 -12.125 C 11.015625 -6.664062 13.578125 -3.9375 18.703125 -3.9375 C 21.960938 -3.9375 24.535156 -5 26.421875 -7.125 C 28.316406 -9.257812 29.265625 -12.71875 29.265625 -17.5 L 29.265625 -35.9375 L 34.578125 -35.9375 L 34.578125 0 L 29.5625 0 L 29.5625 -5.640625 L 28.875 -5.796875 C 27.632812 -3.609375 26.148438 -1.976562 24.421875 -0.90625 C 22.691406 0.15625 20.472656 0.6875 17.765625 0.6875 Z M 17.765625 0.6875 "/></g></g></g><g fill="#000000" fill-opacity="1"><g transform="translate(107.489067, 280.164996)"><g><path d="M 16.390625 0.6875 C 14.128906 0.6875 12.035156 0.390625 10.109375 -0.203125 C 8.191406 -0.804688 6.570312 -1.628906 5.25 -2.671875 C 3.925781 -3.710938 2.988281 -4.882812 2.4375 -6.1875 L 5.578125 -9.453125 L 6.25 -9.453125 C 7.425781 -7.671875 8.835938 -6.328125 10.484375 -5.421875 C 12.140625 -4.523438 14.109375 -4.078125 16.390625 -4.078125 C 19.035156 -4.078125 21.046875 -4.59375 22.421875 -5.625 C 23.804688 -6.65625 24.5 -8.09375 24.5 -9.9375 C 24.5 -11.351562 24.082031 -12.519531 23.25 -13.4375 C 22.414062 -14.363281 21.0625 -15.054688 19.1875 -15.515625 L 13.125 -17.015625 C 9.894531 -17.796875 7.535156 -19.03125 6.046875 -20.71875 C 4.554688 -22.414062 3.8125 -24.515625 3.8125 -27.015625 C 3.8125 -28.972656 4.3125 -30.671875 5.3125 -32.109375 C 6.3125 -33.554688 7.75 -34.671875 9.625 -35.453125 C 11.507812 -36.234375 13.742188 -36.625 16.328125 -36.625 C 19.628906 -36.625 22.226562 -36.160156 24.125 -35.234375 C 26.03125 -34.316406 27.515625 -33.03125 28.578125 -31.375 L 25.578125 -28.453125 L 24.921875 -28.453125 C 23.773438 -29.773438 22.519531 -30.726562 21.15625 -31.3125 C 19.800781 -31.894531 18.191406 -32.1875 16.328125 -32.1875 C 13.953125 -32.1875 12.132812 -31.765625 10.875 -30.921875 C 9.625 -30.078125 9 -28.847656 9 -27.234375 C 9 -25.785156 9.441406 -24.613281 10.328125 -23.71875 C 11.222656 -22.832031 12.773438 -22.117188 14.984375 -21.578125 L 20.953125 -20.140625 C 24.078125 -19.398438 26.332031 -18.171875 27.71875 -16.453125 C 29.113281 -14.734375 29.8125 -12.582031 29.8125 -10 C 29.8125 -7.894531 29.3125 -6.035156 28.3125 -4.421875 C 27.3125 -2.816406 25.800781 -1.5625 23.78125 -0.65625 C 21.757812 0.238281 19.296875 0.6875 16.390625 0.6875 Z M 16.390625 0.6875 "/></g></g></g><g fill="#000000" fill-opacity="1"><g transform="translate(140.72303, 280.164996)"><g><path d="M 24.3125 -5.703125 L 26 -1.890625 C 25.15625 -1.046875 24.039062 -0.40625 22.65625 0.03125 C 21.28125 0.46875 19.789062 0.6875 18.1875 0.6875 C 11.320312 0.6875 7.890625 -2.789062 7.890625 -9.75 L 7.890625 -31.609375 L 1.625 -31.609375 L 1.625 -35.96875 L 7.890625 -35.96875 L 7.890625 -43.5625 L 13.203125 -44.453125 L 13.203125 -35.96875 L 24.765625 -35.96875 L 24.765625 -31.609375 L 13.203125 -31.609375 L 13.203125 -10.265625 C 13.203125 -6.140625 14.992188 -4.078125 18.578125 -4.078125 C 20.523438 -4.078125 22.207031 -4.617188 23.625 -5.703125 Z M 24.3125 -5.703125 "/></g></g></g><g fill="#033a84" fill-opacity="1"><g transform="translate(168.092485, 280.164996)"><g><path d="M 15.609375 -20.921875 L 15.609375 -7.890625 L 38.359375 -7.890625 L 38.359375 0 L 6.1875 0 L 6.1875 -47.640625 L 37.828125 -47.640625 L 37.828125 -39.75 L 15.609375 -39.75 L 15.609375 -28.609375 L 35.03125 -28.609375 L 35.03125 -20.921875 Z M 15.609375 -20.921875 "/></g></g></g><g fill="#033a84" fill-opacity="1"><g transform="translate(209.048457, 280.164996)"><g><path d="M 16.8125 0.6875 C 14.351562 0.6875 12.101562 0.398438 10.0625 -0.171875 C 8.019531 -0.753906 6.273438 -1.550781 4.828125 -2.5625 C 3.390625 -3.570312 2.320312 -4.726562 1.625 -6.03125 L 6.640625 -11.4375 L 7.328125 -11.4375 C 8.523438 -9.832031 9.9375 -8.625 11.5625 -7.8125 C 13.195312 -7.007812 14.96875 -6.609375 16.875 -6.609375 C 18.632812 -6.609375 19.957031 -6.921875 20.84375 -7.546875 C 21.738281 -8.179688 22.1875 -9.085938 22.1875 -10.265625 C 22.1875 -11.179688 21.863281 -11.945312 21.21875 -12.5625 C 20.582031 -13.175781 19.550781 -13.660156 18.125 -14.015625 L 13.359375 -15.15625 C 9.796875 -16 7.191406 -17.296875 5.546875 -19.046875 C 3.910156 -20.796875 3.09375 -23.015625 3.09375 -25.703125 C 3.09375 -27.941406 3.660156 -29.882812 4.796875 -31.53125 C 5.941406 -33.1875 7.550781 -34.445312 9.625 -35.3125 C 11.695312 -36.1875 14.113281 -36.625 16.875 -36.625 C 20.113281 -36.625 22.796875 -36.15625 24.921875 -35.21875 C 27.054688 -34.289062 28.71875 -33.046875 29.90625 -31.484375 L 25.09375 -26.265625 L 24.4375 -26.265625 C 23.4375 -27.390625 22.3125 -28.210938 21.0625 -28.734375 C 19.8125 -29.253906 18.414062 -29.515625 16.875 -29.515625 C 13.3125 -29.515625 11.53125 -28.410156 11.53125 -26.203125 C 11.53125 -25.265625 11.859375 -24.5 12.515625 -23.90625 C 13.179688 -23.320312 14.351562 -22.847656 16.03125 -22.484375 L 20.46875 -21.5 C 24.113281 -20.71875 26.773438 -19.460938 28.453125 -17.734375 C 30.140625 -16.015625 30.984375 -13.695312 30.984375 -10.78125 C 30.984375 -8.5 30.414062 -6.488281 29.28125 -4.75 C 28.15625 -3.019531 26.53125 -1.679688 24.40625 -0.734375 C 22.28125 0.210938 19.75 0.6875 16.8125 0.6875 Z M 16.8125 0.6875 "/></g></g></g><g fill="#033a84" fill-opacity="1"><g transform="translate(242.184672, 280.164996)"><g><path d="M 24.796875 -8.5625 L 27.140625 -1.890625 C 26.160156 -1.085938 24.929688 -0.457031 23.453125 0 C 21.984375 0.457031 20.3125 0.6875 18.4375 0.6875 C 14.550781 0.6875 11.597656 -0.367188 9.578125 -2.484375 C 7.554688 -4.609375 6.546875 -7.691406 6.546875 -11.734375 L 6.546875 -28.8125 L 1.078125 -28.8125 L 1.078125 -35.96875 L 6.546875 -35.96875 L 6.546875 -42.984375 L 15.578125 -44.453125 L 15.578125 -35.96875 L 25.78125 -35.96875 L 25.78125 -28.8125 L 15.578125 -28.8125 L 15.578125 -12.375 C 15.578125 -10.59375 15.945312 -9.296875 16.6875 -8.484375 C 17.425781 -7.671875 18.5 -7.265625 19.90625 -7.265625 C 21.519531 -7.265625 22.921875 -7.695312 24.109375 -8.5625 Z M 24.796875 -8.5625 "/></g></g></g><g fill="#033a84" fill-opacity="1"><g transform="translate(270.107718, 280.164996)"><g><path d="M 14.015625 0.6875 C 11.710938 0.6875 9.710938 0.265625 8.015625 -0.578125 C 6.316406 -1.429688 5.007812 -2.675781 4.09375 -4.3125 C 3.1875 -5.957031 2.734375 -7.929688 2.734375 -10.234375 C 2.734375 -12.359375 3.1875 -14.144531 4.09375 -15.59375 C 5.007812 -17.039062 6.421875 -18.222656 8.328125 -19.140625 C 10.242188 -20.066406 12.75 -20.78125 15.84375 -21.28125 C 17.988281 -21.625 19.617188 -22 20.734375 -22.40625 C 21.859375 -22.820312 22.613281 -23.289062 23 -23.8125 C 23.394531 -24.34375 23.59375 -25.007812 23.59375 -25.8125 C 23.59375 -26.957031 23.191406 -27.832031 22.390625 -28.4375 C 21.585938 -29.050781 20.25 -29.359375 18.375 -29.359375 C 16.375 -29.359375 14.472656 -28.910156 12.671875 -28.015625 C 10.867188 -27.128906 9.304688 -25.957031 7.984375 -24.5 L 7.328125 -24.5 L 3.546875 -30.203125 C 5.367188 -32.222656 7.59375 -33.796875 10.21875 -34.921875 C 12.851562 -36.054688 15.722656 -36.625 18.828125 -36.625 C 23.585938 -36.625 27.03125 -35.613281 29.15625 -33.59375 C 31.289062 -31.570312 32.359375 -28.707031 32.359375 -25 L 32.359375 -9.390625 C 32.359375 -7.773438 33.0625 -6.96875 34.46875 -6.96875 C 35.019531 -6.96875 35.554688 -7.066406 36.078125 -7.265625 L 36.53125 -7.140625 L 37.171875 -0.84375 C 36.679688 -0.519531 35.988281 -0.253906 35.09375 -0.046875 C 34.207031 0.160156 33.226562 0.265625 32.15625 0.265625 C 30.007812 0.265625 28.332031 -0.144531 27.125 -0.96875 C 25.914062 -1.800781 25.050781 -3.097656 24.53125 -4.859375 L 23.859375 -4.921875 C 22.097656 -1.179688 18.816406 0.6875 14.015625 0.6875 Z M 16.875 -6.0625 C 18.957031 -6.0625 20.625 -6.757812 21.875 -8.15625 C 23.125 -9.5625 23.75 -11.515625 23.75 -14.015625 L 23.75 -17.65625 L 23.140625 -17.796875 C 22.597656 -17.359375 21.882812 -16.992188 21 -16.703125 C 20.125 -16.410156 18.859375 -16.125 17.203125 -15.84375 C 15.242188 -15.507812 13.835938 -14.945312 12.984375 -14.15625 C 12.128906 -13.363281 11.703125 -12.238281 11.703125 -10.78125 C 11.703125 -9.238281 12.15625 -8.066406 13.0625 -7.265625 C 13.976562 -6.460938 15.25 -6.0625 16.875 -6.0625 Z M 16.875 -6.0625 "/></g></g></g><g fill="#033a84" fill-opacity="1"><g transform="translate(308.000951, 280.164996)"><g><path d="M 24.796875 -8.5625 L 27.140625 -1.890625 C 26.160156 -1.085938 24.929688 -0.457031 23.453125 0 C 21.984375 0.457031 20.3125 0.6875 18.4375 0.6875 C 14.550781 0.6875 11.597656 -0.367188 9.578125 -2.484375 C 7.554688 -4.609375 6.546875 -7.691406 6.546875 -11.734375 L 6.546875 -28.8125 L 1.078125 -28.8125 L 1.078125 -35.96875 L 6.546875 -35.96875 L 6.546875 -42.984375 L 15.578125 -44.453125 L 15.578125 -35.96875 L 25.78125 -35.96875 L 25.78125 -28.8125 L 15.578125 -28.8125 L 15.578125 -12.375 C 15.578125 -10.59375 15.945312 -9.296875 16.6875 -8.484375 C 17.425781 -7.671875 18.5 -7.265625 19.90625 -7.265625 C 21.519531 -7.265625 22.921875 -7.695312 24.109375 -8.5625 Z M 24.796875 -8.5625 "/></g></g></g><g fill="#033a84" fill-opacity="1"><g transform="translate(335.923996, 280.164996)"><g><path d="M 35.515625 -15.9375 L 12.421875 -15.9375 C 12.679688 -12.800781 13.570312 -10.519531 15.09375 -9.09375 C 16.613281 -7.675781 18.6875 -6.96875 21.3125 -6.96875 C 23.375 -6.96875 25.046875 -7.351562 26.328125 -8.125 C 27.609375 -8.894531 28.640625 -10.066406 29.421875 -11.640625 L 30.109375 -11.640625 L 36.109375 -7.78125 C 34.929688 -5.269531 33.15625 -3.226562 30.78125 -1.65625 C 28.414062 -0.09375 25.257812 0.6875 21.3125 0.6875 C 17.59375 0.6875 14.378906 -0.015625 11.671875 -1.421875 C 8.972656 -2.835938 6.890625 -4.941406 5.421875 -7.734375 C 3.953125 -10.523438 3.21875 -13.929688 3.21875 -17.953125 C 3.21875 -22.035156 3.988281 -25.476562 5.53125 -28.28125 C 7.082031 -31.082031 9.171875 -33.171875 11.796875 -34.546875 C 14.421875 -35.929688 17.375 -36.625 20.65625 -36.625 C 25.738281 -36.625 29.628906 -35.273438 32.328125 -32.578125 C 35.035156 -29.890625 36.390625 -25.9375 36.390625 -20.71875 C 36.390625 -18.832031 36.328125 -17.367188 36.203125 -16.328125 Z M 27.765625 -21.765625 C 27.671875 -24.503906 27.03125 -26.5 25.84375 -27.75 C 24.664062 -29 22.9375 -29.625 20.65625 -29.625 C 16.09375 -29.625 13.410156 -27.003906 12.609375 -21.765625 Z M 27.765625 -21.765625 "/></g></g></g></svg>
